<svg xmlns="http://www.w3.org/2000/svg" version="1.1" xmlns:xlink="http://www.w3.org/1999/xlink" width="512" height="512" x="0" y="0" viewBox="0 0 512 512" style="enable-background:new 0 0 512 512" xml:space="preserve" class=""><g><path d="M436.71 210.82h30.11v180.71h-30.11z" fill="#000000" opacity="1" data-original="#000000"></path><path d="M376.47 391.53V210.82h60.24v-30.11h-60.24V90.35h-30.12V60.24h-30.11V30.12h-30.12v30.12H256V30.12h-30.12V0h-60.23v30.12h-30.12v30.12h-30.12V30.12H75.3v30.12H45.18v421.64H75.3V512h271.05v-30.12h30.12v-60.23h60.24v-30.12z" fill="#000000" opacity="1" data-original="#000000"></path><path fill="#f8f29e" d="M75.3 451.76h271.05v30.12H75.3z" opacity="1" data-original="#f8f29e"></path><path fill="#ffc906" d="M256 150.59v30.12h-30.12v30.11H256v180.71h-30.12V210.82h-30.11v30.12h-60.24v150.59h-30.12V240.94h30.12v-30.12h-30.12v-60.23H75.3v271.06h271.05V150.59zm-90.35 240.94V271.06h30.12v120.47zm150.59 0h-30.12V180.71h30.12z" opacity="1" data-original="#ffc906"></path><path fill="#ffeeb4" d="M316.24 90.35V60.24h-30.12v30.11H256V60.24h-30.12V30.12h-60.23v30.12h-30.12v30.11h-30.12V60.24H75.3v60.23h30.11v30.12h30.12v60.23h60.24v-30.11h30.11v-30.12H256v-30.12h90.35V90.35z" opacity="1" data-original="#ffeeb4"></path><path fill="#f8db2b" d="M286.12 451.76h60.23v30.12h-60.23z" opacity="1" data-original="#f8db2b"></path><path fill="#f5851f" d="M286.12 150.59v30.12h30.12v210.82H256v30.12h90.35V150.59z" opacity="1" data-original="#f5851f"></path><g fill="#ffe292"><path d="M316.24 90.35V60.24h-30.12v30.11H256v30.12h90.35V90.35zM225.88 120.47H256v30.12h-30.12z" fill="#ffe292" opacity="1" data-original="#ffe292"></path></g></g></svg>
