<svg xmlns="http://www.w3.org/2000/svg" version="1.1" xmlns:xlink="http://www.w3.org/1999/xlink" width="512" height="512" x="0" y="0" viewBox="0 0 512 512" style="enable-background:new 0 0 512 512" xml:space="preserve" class=""><g><path d="M481.88 150.59v-30.12h-30.12V90.35h-30.11v30.12H90.35V90.35H60.24v30.12H30.12v30.12H0v271.06h30.12v30.11h180.7v-30.11h90.36v30.11h180.7v-30.11H512V150.59zM90.35 60.24h331.3v30.11H90.35z" fill="#000000" opacity="1" data-original="#000000"></path><path fill="#ffffff" d="M150.59 150.59h210.82v30.12H150.59z" opacity="1" data-original="#6e67d5" class=""></path><g fill="#e7f2ff"><path d="M331.29 271.06v90.35h90.36v-90.35zm60.24 60.23h-30.12v-30.11h30.12zM90.35 271.06v90.35h90.36v-90.35zm60.24 60.23h-30.12v-30.11h30.12z" fill="#e7f2ff" opacity="1" data-original="#e7f2ff"></path></g><path fill="#999999" d="M451.76 331.29v30.12h-30.11v30.12h-90.36v-30.12h-30.11v-30.12h-90.36v30.12h-30.11v30.12H90.35v-30.12H60.24v-30.12H30.12v90.36h180.7v-30.12h90.36v30.12h180.7v-90.36z" opacity="1" data-original="#00a8e1" class=""></path><path fill="#ffa500" d="M391.53 150.59v30.12h-30.12v30.11H150.59v-30.11h-30.12v-30.12H30.12v150.59h30.12v-30.12h30.11v-30.12h90.36v30.12h30.11v30.12h90.36v-30.12h30.11v-30.12h90.36v30.12h30.11v30.12h30.12V150.59zM60.24 210.82v-30.11h30.11v30.11zm391.52 0h-30.11v-30.11h30.11z" opacity="1" data-original="#eb7199" class=""></path><path fill="#ffa500" d="M421.65 150.59v30.12h30.11v60.23h-30.11v30.12h30.11v30.12h30.12V150.59z" opacity="1" data-original="#bc4799" class=""></path><path fill="#999999" d="M451.76 331.29v30.12h-30.11v30.12h-60.24v30.12h120.47v-90.36z" opacity="1" data-original="#0d74c9" class=""></path><path fill="#ffffff" d="M331.29 150.59h30.12v30.12h-30.12z" opacity="1" data-original="#54469c" class=""></path><g fill="#b5b8dc"><path d="M391.53 271.06v60.23h-30.12v30.12h60.24v-90.35zM150.59 331.29h-30.12v30.12h60.24v-90.35h-30.12z" fill="#b5b8dc" opacity="1" data-original="#b5b8dc" class=""></path></g></g></svg>
