<svg xmlns="http://www.w3.org/2000/svg" version="1.1" xmlns:xlink="http://www.w3.org/1999/xlink" width="512" height="512" x="0" y="0" viewBox="0 0 32 32" style="enable-background:new 0 0 512 512" xml:space="preserve" class=""><g><path d="M31 31h1v1h-1zM30 31h1v1h-1zM29 31h1v1h-1zM28 31h1v1h-1zM27 31h1v1h-1zM26 31h1v1h-1zM25 31h1v1h-1zM24 31h1v1h-1zM19 31h1v1h-1zM18 31h1v1h-1zM17 31h1v1h-1zM16 31h1v1h-1zM15 31h1v1h-1zM14 31h1v1h-1zM13 31h1v1h-1zM12 31h1v1h-1zM11 31h1v1h-1zM10 31h1v1h-1zM9 31h1v1H9zM8 31h1v1H8zM31 30h1v1h-1z" fill="#000000" opacity="1" data-original="#000000" class=""></path><path fill="#006df0" d="M30 30h1v1h-1z" opacity="1" data-original="#006df0"></path><path fill="#57a4ff" d="M29 30h1v1h-1zM28 30h1v1h-1zM27 30h1v1h-1zM26 30h1v1h-1zM25 30h1v1h-1z" opacity="1" data-original="#57a4ff" class=""></path><path d="M24 30h1v1h-1zM23 30h1v1h-1zM22 30h1v1h-1zM21 30h1v1h-1zM20 30h1v1h-1z" fill="#000000" opacity="1" data-original="#000000" class=""></path><path fill="#ebbf00" d="M19 30h1v1h-1z" opacity="1" data-original="#ebbf00"></path><path fill="#ffde55" d="M18 30h1v1h-1zM17 30h1v1h-1zM16 30h1v1h-1zM15 30h1v1h-1zM14 30h1v1h-1zM13 30h1v1h-1zM12 30h1v1h-1zM11 30h1v1h-1zM10 30h1v1h-1zM9 30h1v1H9zM8 30h1v1H8z" opacity="1" data-original="#ffde55" class=""></path><path d="M7 30h1v1H7zM6 30h1v1H6zM5 30h1v1H5zM4 30h1v1H4zM3 30h1v1H3zM31 29h1v1h-1z" fill="#000000" opacity="1" data-original="#000000" class=""></path><path fill="#57a4ff" d="M30 29h1v1h-1z" opacity="1" data-original="#57a4ff" class=""></path><path d="M29 29h1v1h-1zM28 29h1v1h-1zM27 29h1v1h-1zM26 29h1v1h-1z" fill="#000000" opacity="1" data-original="#000000" class=""></path><path fill="#bddbff" d="M25 29h1v1h-1z" opacity="1" data-original="#bddbff"></path><path d="M24 29h1v1h-1z" fill="#000000" opacity="1" data-original="#000000" class=""></path><path fill="#ebbf00" d="M23 29h1v1h-1zM22 29h1v1h-1z" opacity="1" data-original="#ebbf00"></path><path fill="#ffde55" d="M21 29h1v1h-1zM20 29h1v1h-1zM19 29h1v1h-1zM18 29h1v1h-1zM17 29h1v1h-1zM16 29h1v1h-1zM15 29h1v1h-1zM14 29h1v1h-1zM13 29h1v1h-1zM12 29h1v1h-1zM11 29h1v1h-1zM10 29h1v1h-1zM9 29h1v1H9zM8 29h1v1H8zM7 29h1v1H7zM6 29h1v1H6zM5 29h1v1H5zM4 29h1v1H4zM3 29h1v1H3z" opacity="1" data-original="#ffde55" class=""></path><path d="M2 29h1v1H2zM31 28h1v1h-1zM30 28h1v1h-1zM29 28h1v1h-1zM28 28h1v1h-1zM27 28h1v1h-1zM26 28h1v1h-1zM25 28h1v1h-1zM24 28h1v1h-1z" fill="#000000" opacity="1" data-original="#000000" class=""></path><path fill="#ebbf00" d="M23 28h1v1h-1z" opacity="1" data-original="#ebbf00"></path><path fill="#ffde55" d="M22 28h1v1h-1zM21 28h1v1h-1zM20 28h1v1h-1zM19 28h1v1h-1zM18 28h1v1h-1zM17 28h1v1h-1z" opacity="1" data-original="#ffde55" class=""></path><path d="M16 28h1v1h-1zM15 28h1v1h-1zM14 28h1v1h-1zM13 28h1v1h-1zM12 28h1v1h-1zM11 28h1v1h-1z" fill="#000000" opacity="1" data-original="#000000" class=""></path><path fill="#ffde55" d="M10 28h1v1h-1zM9 28h1v1H9zM8 28h1v1H8zM7 28h1v1H7zM6 28h1v1H6zM5 28h1v1H5zM4 28h1v1H4zM3 28h1v1H3zM2 28h1v1H2z" opacity="1" data-original="#ffde55" class=""></path><path d="M1 28h1v1H1zM31 27h1v1h-1z" fill="#000000" opacity="1" data-original="#000000" class=""></path><path fill="#006df0" d="M30 27h1v1h-1z" opacity="1" data-original="#006df0"></path><path fill="#57a4ff" d="M29 27h1v1h-1zM28 27h1v1h-1zM27 27h1v1h-1zM26 27h1v1h-1zM25 27h1v1h-1z" opacity="1" data-original="#57a4ff" class=""></path><path d="M24 27h1v1h-1z" fill="#000000" opacity="1" data-original="#000000" class=""></path><path fill="#ffde55" d="M23 27h1v1h-1zM22 27h1v1h-1zM21 27h1v1h-1zM20 27h1v1h-1zM19 27h1v1h-1zM18 27h1v1h-1zM17 27h1v1h-1z" opacity="1" data-original="#ffde55" class=""></path><path d="M16 27h1v1h-1z" fill="#000000" opacity="1" data-original="#000000" class=""></path><path fill="#c6c5ca" d="M15 27h1v1h-1zM14 27h1v1h-1zM13 27h1v1h-1z" opacity="1" data-original="#c6c5ca"></path><path fill="#e0e0e2" d="M12 27h1v1h-1z" opacity="1" data-original="#e0e0e2"></path><path d="M11 27h1v1h-1z" fill="#000000" opacity="1" data-original="#000000" class=""></path><path fill="#ffde55" d="M10 27h1v1h-1zM9 27h1v1H9zM8 27h1v1H8zM7 27h1v1H7zM6 27h1v1H6zM5 27h1v1H5zM4 27h1v1H4zM3 27h1v1H3zM2 27h1v1H2zM1 27h1v1H1z" opacity="1" data-original="#ffde55" class=""></path><path d="M0 27h1v1H0zM31 26h1v1h-1z" fill="#000000" opacity="1" data-original="#000000" class=""></path><path fill="#57a4ff" d="M30 26h1v1h-1z" opacity="1" data-original="#57a4ff" class=""></path><path d="M29 26h1v1h-1zM28 26h1v1h-1zM27 26h1v1h-1zM26 26h1v1h-1z" fill="#000000" opacity="1" data-original="#000000" class=""></path><path fill="#bddbff" d="M25 26h1v1h-1z" opacity="1" data-original="#bddbff"></path><path d="M24 26h1v1h-1z" fill="#000000" opacity="1" data-original="#000000" class=""></path><path fill="#ffde55" d="M23 26h1v1h-1zM22 26h1v1h-1zM21 26h1v1h-1zM20 26h1v1h-1zM19 26h1v1h-1zM18 26h1v1h-1zM17 26h1v1h-1z" opacity="1" data-original="#ffde55" class=""></path><path d="M16 26h1v1h-1zM15 26h1v1h-1zM14 26h1v1h-1zM13 26h1v1h-1zM12 26h1v1h-1zM11 26h1v1h-1z" fill="#000000" opacity="1" data-original="#000000" class=""></path><path fill="#ffde55" d="M10 26h1v1h-1zM9 26h1v1H9zM8 26h1v1H8zM7 26h1v1H7zM6 26h1v1H6zM5 26h1v1H5zM4 26h1v1H4zM3 26h1v1H3zM2 26h1v1H2zM1 26h1v1H1z" opacity="1" data-original="#ffde55" class=""></path><path d="M0 26h1v1H0zM31 25h1v1h-1zM30 25h1v1h-1zM29 25h1v1h-1zM28 25h1v1h-1zM27 25h1v1h-1zM26 25h1v1h-1zM25 25h1v1h-1zM24 25h1v1h-1z" fill="#000000" opacity="1" data-original="#000000" class=""></path><path fill="#ffde55" d="M23 25h1v1h-1zM22 25h1v1h-1zM21 25h1v1h-1zM20 25h1v1h-1zM19 25h1v1h-1zM18 25h1v1h-1zM17 25h1v1h-1zM16 25h1v1h-1zM15 25h1v1h-1zM14 25h1v1h-1zM13 25h1v1h-1zM12 25h1v1h-1zM11 25h1v1h-1zM10 25h1v1h-1zM9 25h1v1H9zM8 25h1v1H8zM7 25h1v1H7zM6 25h1v1H6zM5 25h1v1H5zM4 25h1v1H4zM3 25h1v1H3zM2 25h1v1H2zM1 25h1v1H1z" opacity="1" data-original="#ffde55" class=""></path><path d="M0 25h1v1H0zM31 24h1v1h-1z" fill="#000000" opacity="1" data-original="#000000" class=""></path><path fill="#006df0" d="M30 24h1v1h-1z" opacity="1" data-original="#006df0"></path><path fill="#57a4ff" d="M29 24h1v1h-1zM28 24h1v1h-1zM27 24h1v1h-1zM26 24h1v1h-1zM25 24h1v1h-1z" opacity="1" data-original="#57a4ff" class=""></path><path d="M24 24h1v1h-1z" fill="#000000" opacity="1" data-original="#000000" class=""></path><path fill="#ffde55" d="M23 24h1v1h-1zM22 24h1v1h-1zM21 24h1v1h-1zM20 24h1v1h-1zM19 24h1v1h-1zM18 24h1v1h-1zM17 24h1v1h-1zM16 24h1v1h-1zM15 24h1v1h-1zM14 24h1v1h-1zM13 24h1v1h-1zM12 24h1v1h-1zM11 24h1v1h-1zM10 24h1v1h-1zM9 24h1v1H9zM8 24h1v1H8zM7 24h1v1H7zM6 24h1v1H6zM5 24h1v1H5zM4 24h1v1H4zM3 24h1v1H3zM2 24h1v1H2z" opacity="1" data-original="#ffde55" class=""></path><path fill="#ffeb99" d="M1 24h1v1H1z" opacity="1" data-original="#ffeb99" class=""></path><path d="M0 24h1v1H0zM31 23h1v1h-1z" fill="#000000" opacity="1" data-original="#000000" class=""></path><path fill="#57a4ff" d="M30 23h1v1h-1z" opacity="1" data-original="#57a4ff" class=""></path><path d="M29 23h1v1h-1zM28 23h1v1h-1zM27 23h1v1h-1zM26 23h1v1h-1z" fill="#000000" opacity="1" data-original="#000000" class=""></path><path fill="#bddbff" d="M25 23h1v1h-1z" opacity="1" data-original="#bddbff"></path><path d="M24 23h1v1h-1z" fill="#000000" opacity="1" data-original="#000000" class=""></path><path fill="#ffde55" d="M23 23h1v1h-1zM22 23h1v1h-1zM21 23h1v1h-1zM20 23h1v1h-1z" opacity="1" data-original="#ffde55" class=""></path><path d="M19 23h1v1h-1zM18 23h1v1h-1zM17 23h1v1h-1zM16 23h1v1h-1zM15 23h1v1h-1zM14 23h1v1h-1zM13 23h1v1h-1zM12 23h1v1h-1zM11 23h1v1h-1zM10 23h1v1h-1zM9 23h1v1H9zM8 23h1v1H8z" fill="#000000" opacity="1" data-original="#000000" class=""></path><path fill="#ffeb99" d="M7 23h1v1H7z" opacity="1" data-original="#ffeb99" class=""></path><path fill="#ffde55" d="M6 23h1v1H6zM5 23h1v1H5zM4 23h1v1H4z" opacity="1" data-original="#ffde55" class=""></path><path fill="#ffeb99" d="M3 23h1v1H3z" opacity="1" data-original="#ffeb99" class=""></path><path fill="#ffde55" d="M2 23h1v1H2zM1 23h1v1H1z" opacity="1" data-original="#ffde55" class=""></path><path d="M0 23h1v1H0zM31 22h1v1h-1zM30 22h1v1h-1zM29 22h1v1h-1zM28 22h1v1h-1zM27 22h1v1h-1zM26 22h1v1h-1zM25 22h1v1h-1zM24 22h1v1h-1zM23 22h1v1h-1zM22 22h1v1h-1zM21 22h1v1h-1zM20 22h1v1h-1z" fill="#000000" opacity="1" data-original="#000000" class=""></path><path fill="#ebbf00" d="M19 22h1v1h-1z" opacity="1" data-original="#ebbf00"></path><path fill="#ffde55" d="M18 22h1v1h-1zM17 22h1v1h-1zM16 22h1v1h-1zM15 22h1v1h-1zM14 22h1v1h-1zM13 22h1v1h-1zM12 22h1v1h-1zM11 22h1v1h-1zM10 22h1v1h-1zM9 22h1v1H9zM8 22h1v1H8z" opacity="1" data-original="#ffde55" class=""></path><path d="M7 22h1v1H7zM6 22h1v1H6zM5 22h1v1H5zM4 22h1v1H4zM3 22h1v1H3z" fill="#000000" opacity="1" data-original="#000000" class=""></path><path fill="#ffeb99" d="M2 22h1v1H2zM1 22h1v1H1z" opacity="1" data-original="#ffeb99" class=""></path><path d="M0 22h1v1H0zM31 21h1v1h-1z" fill="#000000" opacity="1" data-original="#000000" class=""></path><path fill="#006df0" d="M30 21h1v1h-1z" opacity="1" data-original="#006df0"></path><path fill="#57a4ff" d="M29 21h1v1h-1zM28 21h1v1h-1zM27 21h1v1h-1zM26 21h1v1h-1zM25 21h1v1h-1z" opacity="1" data-original="#57a4ff" class=""></path><path d="M24 21h1v1h-1z" fill="#000000" opacity="1" data-original="#000000" class=""></path><path fill="#ebbf00" d="M23 21h1v1h-1z" opacity="1" data-original="#ebbf00"></path><path fill="#ffde55" d="M22 21h1v1h-1zM21 21h1v1h-1zM20 21h1v1h-1zM19 21h1v1h-1zM18 21h1v1h-1zM17 21h1v1h-1zM16 21h1v1h-1zM15 21h1v1h-1zM14 21h1v1h-1zM13 21h1v1h-1zM12 21h1v1h-1zM11 21h1v1h-1zM10 21h1v1h-1zM9 21h1v1H9zM8 21h1v1H8zM7 21h1v1H7zM6 21h1v1H6zM5 21h1v1H5zM4 21h1v1H4zM3 21h1v1H3z" opacity="1" data-original="#ffde55" class=""></path><path d="M2 21h1v1H2z" fill="#000000" opacity="1" data-original="#000000" class=""></path><path fill="#ffeb99" d="M1 21h1v1H1z" opacity="1" data-original="#ffeb99" class=""></path><path d="M0 21h1v1H0zM31 20h1v1h-1z" fill="#000000" opacity="1" data-original="#000000" class=""></path><path fill="#57a4ff" d="M30 20h1v1h-1z" opacity="1" data-original="#57a4ff" class=""></path><path d="M29 20h1v1h-1zM28 20h1v1h-1zM27 20h1v1h-1zM26 20h1v1h-1z" fill="#000000" opacity="1" data-original="#000000" class=""></path><path fill="#bddbff" d="M25 20h1v1h-1z" opacity="1" data-original="#bddbff"></path><path d="M24 20h1v1h-1z" fill="#000000" opacity="1" data-original="#000000" class=""></path><path fill="#ffde55" d="M23 20h1v1h-1zM22 20h1v1h-1zM21 20h1v1h-1zM20 20h1v1h-1zM19 20h1v1h-1zM18 20h1v1h-1zM17 20h1v1h-1z" opacity="1" data-original="#ffde55" class=""></path><path d="M16 20h1v1h-1zM15 20h1v1h-1zM14 20h1v1h-1zM13 20h1v1h-1zM12 20h1v1h-1zM11 20h1v1h-1z" fill="#000000" opacity="1" data-original="#000000" class=""></path><path fill="#ffde55" d="M10 20h1v1h-1zM9 20h1v1H9zM8 20h1v1H8zM7 20h1v1H7zM6 20h1v1H6zM5 20h1v1H5zM4 20h1v1H4zM3 20h1v1H3zM2 20h1v1H2z" opacity="1" data-original="#ffde55" class=""></path><path d="M1 20h1v1H1zM0 20h1v1H0zM30 19h1v1h-1zM29 19h1v1h-1zM28 19h1v1h-1zM27 19h1v1h-1zM26 19h1v1h-1zM25 19h1v1h-1z" fill="#000000" opacity="1" data-original="#000000" class=""></path><path fill="#ebbf00" d="M24 19h1v1h-1z" opacity="1" data-original="#ebbf00"></path><path fill="#ffde55" d="M23 19h1v1h-1zM22 19h1v1h-1zM21 19h1v1h-1zM20 19h1v1h-1zM19 19h1v1h-1zM18 19h1v1h-1zM17 19h1v1h-1z" opacity="1" data-original="#ffde55" class=""></path><path d="M16 19h1v1h-1z" fill="#000000" opacity="1" data-original="#000000" class=""></path><path fill="#c6c5ca" d="M15 19h1v1h-1zM14 19h1v1h-1zM13 19h1v1h-1z" opacity="1" data-original="#c6c5ca"></path><path fill="#e0e0e2" d="M12 19h1v1h-1z" opacity="1" data-original="#e0e0e2"></path><path d="M11 19h1v1h-1z" fill="#000000" opacity="1" data-original="#000000" class=""></path><path fill="#ffde55" d="M10 19h1v1h-1zM9 19h1v1H9zM8 19h1v1H8zM7 19h1v1H7zM6 19h1v1H6zM5 19h1v1H5zM4 19h1v1H4zM3 19h1v1H3zM2 19h1v1H2zM1 19h1v1H1z" opacity="1" data-original="#ffde55" class=""></path><path d="M0 19h1v1H0zM29 18h1v1h-1z" fill="#000000" opacity="1" data-original="#000000" class=""></path><path fill="#ffde55" d="M28 18h1v1h-1zM27 18h1v1h-1z" opacity="1" data-original="#ffde55" class=""></path><path d="M26 18h1v1h-1z" fill="#000000" opacity="1" data-original="#000000" class=""></path><path fill="#ebbf00" d="M25 18h1v1h-1z" opacity="1" data-original="#ebbf00"></path><path fill="#ffde55" d="M24 18h1v1h-1zM23 18h1v1h-1zM22 18h1v1h-1zM21 18h1v1h-1zM20 18h1v1h-1zM19 18h1v1h-1zM18 18h1v1h-1zM17 18h1v1h-1z" opacity="1" data-original="#ffde55" class=""></path><path d="M16 18h1v1h-1zM15 18h1v1h-1zM14 18h1v1h-1zM13 18h1v1h-1zM12 18h1v1h-1zM11 18h1v1h-1z" fill="#000000" opacity="1" data-original="#000000" class=""></path><path fill="#ffde55" d="M10 18h1v1h-1zM9 18h1v1H9zM8 18h1v1H8zM7 18h1v1H7zM6 18h1v1H6zM5 18h1v1H5zM4 18h1v1H4zM3 18h1v1H3zM2 18h1v1H2zM1 18h1v1H1z" opacity="1" data-original="#ffde55" class=""></path><path d="M0 18h1v1H0zM29 17h1v1h-1zM28 17h1v1h-1zM27 17h1v1h-1zM26 17h1v1h-1z" fill="#000000" opacity="1" data-original="#000000" class=""></path><path fill="#ffde55" d="M25 17h1v1h-1zM24 17h1v1h-1zM23 17h1v1h-1zM22 17h1v1h-1zM21 17h1v1h-1zM20 17h1v1h-1zM19 17h1v1h-1zM18 17h1v1h-1zM17 17h1v1h-1zM16 17h1v1h-1zM15 17h1v1h-1zM14 17h1v1h-1zM13 17h1v1h-1zM12 17h1v1h-1zM11 17h1v1h-1zM10 17h1v1h-1zM9 17h1v1H9zM8 17h1v1H8zM7 17h1v1H7zM6 17h1v1H6zM5 17h1v1H5zM4 17h1v1H4zM3 17h1v1H3zM2 17h1v1H2zM1 17h1v1H1z" opacity="1" data-original="#ffde55" class=""></path><path d="M0 17h1v1H0zM27 16h1v1h-1z" fill="#000000" opacity="1" data-original="#000000" class=""></path><path fill="#ffde55" d="M26 16h1v1h-1zM25 16h1v1h-1zM24 16h1v1h-1zM23 16h1v1h-1zM22 16h1v1h-1zM21 16h1v1h-1zM20 16h1v1h-1zM19 16h1v1h-1zM18 16h1v1h-1zM17 16h1v1h-1zM16 16h1v1h-1zM15 16h1v1h-1zM14 16h1v1h-1zM13 16h1v1h-1zM12 16h1v1h-1zM11 16h1v1h-1zM10 16h1v1h-1zM9 16h1v1H9zM8 16h1v1H8zM7 16h1v1H7zM6 16h1v1H6zM5 16h1v1H5zM4 16h1v1H4zM3 16h1v1H3zM2 16h1v1H2z" opacity="1" data-original="#ffde55" class=""></path><path fill="#ffeb99" d="M1 16h1v1H1z" opacity="1" data-original="#ffeb99" class=""></path><path d="M0 16h1v1H0zM27 15h1v1h-1z" fill="#000000" opacity="1" data-original="#000000" class=""></path><path fill="#ffde55" d="M26 15h1v1h-1zM25 15h1v1h-1zM24 15h1v1h-1zM23 15h1v1h-1zM22 15h1v1h-1zM21 15h1v1h-1zM20 15h1v1h-1z" opacity="1" data-original="#ffde55" class=""></path><path d="M19 15h1v1h-1zM18 15h1v1h-1zM17 15h1v1h-1zM16 15h1v1h-1zM15 15h1v1h-1zM14 15h1v1h-1zM13 15h1v1h-1zM12 15h1v1h-1zM11 15h1v1h-1zM10 15h1v1h-1zM9 15h1v1H9zM8 15h1v1H8z" fill="#000000" opacity="1" data-original="#000000" class=""></path><path fill="#ffeb99" d="M7 15h1v1H7z" opacity="1" data-original="#ffeb99" class=""></path><path fill="#ffde55" d="M6 15h1v1H6zM5 15h1v1H5zM4 15h1v1H4z" opacity="1" data-original="#ffde55" class=""></path><path fill="#ffeb99" d="M3 15h1v1H3z" opacity="1" data-original="#ffeb99" class=""></path><path fill="#ffde55" d="M2 15h1v1H2zM1 15h1v1H1z" opacity="1" data-original="#ffde55" class=""></path><path d="M0 15h1v1H0zM27 14h1v1h-1z" fill="#000000" opacity="1" data-original="#000000" class=""></path><path fill="#ffde55" d="M26 14h1v1h-1zM25 14h1v1h-1z" opacity="1" data-original="#ffde55" class=""></path><path d="M24 14h1v1h-1zM23 14h1v1h-1zM22 14h1v1h-1zM21 14h1v1h-1zM20 14h1v1h-1z" fill="#000000" opacity="1" data-original="#000000" class=""></path><path fill="#ebbf00" d="M19 14h1v1h-1z" opacity="1" data-original="#ebbf00"></path><path fill="#ffde55" d="M18 14h1v1h-1zM17 14h1v1h-1zM16 14h1v1h-1zM15 14h1v1h-1zM14 14h1v1h-1zM13 14h1v1h-1zM12 14h1v1h-1zM11 14h1v1h-1zM10 14h1v1h-1zM9 14h1v1H9zM8 14h1v1H8z" opacity="1" data-original="#ffde55" class=""></path><path d="M7 14h1v1H7zM6 14h1v1H6zM5 14h1v1H5zM4 14h1v1H4zM3 14h1v1H3z" fill="#000000" opacity="1" data-original="#000000" class=""></path><path fill="#ffeb99" d="M2 14h1v1H2zM1 14h1v1H1z" opacity="1" data-original="#ffeb99" class=""></path><path d="M0 14h1v1H0zM27 13h1v1h-1z" fill="#000000" opacity="1" data-original="#000000" class=""></path><path fill="#ffde55" d="M26 13h1v1h-1z" opacity="1" data-original="#ffde55" class=""></path><path d="M25 13h1v1h-1z" fill="#000000" opacity="1" data-original="#000000" class=""></path><path fill="#ebbf00" d="M24 13h1v1h-1z" opacity="1" data-original="#ebbf00"></path><path fill="#ffde55" d="M23 13h1v1h-1zM22 13h1v1h-1zM21 13h1v1h-1zM20 13h1v1h-1zM19 13h1v1h-1zM18 13h1v1h-1zM17 13h1v1h-1zM16 13h1v1h-1zM15 13h1v1h-1zM14 13h1v1h-1zM13 13h1v1h-1zM12 13h1v1h-1zM11 13h1v1h-1zM10 13h1v1h-1zM9 13h1v1H9zM8 13h1v1H8zM7 13h1v1H7zM6 13h1v1H6zM5 13h1v1H5zM4 13h1v1H4zM3 13h1v1H3z" opacity="1" data-original="#ffde55" class=""></path><path d="M2 13h1v1H2z" fill="#000000" opacity="1" data-original="#000000" class=""></path><path fill="#ffeb99" d="M1 13h1v1H1z" opacity="1" data-original="#ffeb99" class=""></path><path d="M0 13h1v1H0zM27 12h1v1h-1zM26 12h1v1h-1z" fill="#000000" opacity="1" data-original="#000000" class=""></path><path fill="#ebbf00" d="M25 12h1v1h-1z" opacity="1" data-original="#ebbf00"></path><path fill="#ffde55" d="M24 12h1v1h-1zM23 12h1v1h-1zM22 12h1v1h-1zM21 12h1v1h-1zM20 12h1v1h-1zM19 12h1v1h-1zM18 12h1v1h-1zM17 12h1v1h-1z" opacity="1" data-original="#ffde55" class=""></path><path d="M16 12h1v1h-1zM15 12h1v1h-1zM14 12h1v1h-1zM13 12h1v1h-1zM12 12h1v1h-1zM11 12h1v1h-1z" fill="#000000" opacity="1" data-original="#000000" class=""></path><path fill="#ffde55" d="M10 12h1v1h-1zM9 12h1v1H9zM8 12h1v1H8zM7 12h1v1H7zM6 12h1v1H6zM5 12h1v1H5zM4 12h1v1H4zM3 12h1v1H3zM2 12h1v1H2z" opacity="1" data-original="#ffde55" class=""></path><path d="M1 12h1v1H1zM0 12h1v1H0zM27 11h1v1h-1z" fill="#000000" opacity="1" data-original="#000000" class=""></path><path fill="#ebbf00" d="M26 11h1v1h-1z" opacity="1" data-original="#ebbf00"></path><path fill="#ffde55" d="M25 11h1v1h-1z" opacity="1" data-original="#ffde55" class=""></path><path fill="#ebbf00" d="M24 11h1v1h-1z" opacity="1" data-original="#ebbf00"></path><path fill="#ffde55" d="M23 11h1v1h-1zM22 11h1v1h-1zM21 11h1v1h-1zM20 11h1v1h-1zM19 11h1v1h-1zM18 11h1v1h-1zM17 11h1v1h-1z" opacity="1" data-original="#ffde55" class=""></path><path d="M16 11h1v1h-1z" fill="#000000" opacity="1" data-original="#000000" class=""></path><path fill="#c6c5ca" d="M15 11h1v1h-1zM14 11h1v1h-1zM13 11h1v1h-1z" opacity="1" data-original="#c6c5ca"></path><path fill="#e0e0e2" d="M12 11h1v1h-1z" opacity="1" data-original="#e0e0e2"></path><path d="M11 11h1v1h-1z" fill="#000000" opacity="1" data-original="#000000" class=""></path><path fill="#ffde55" d="M10 11h1v1h-1zM9 11h1v1H9zM8 11h1v1H8zM7 11h1v1H7zM6 11h1v1H6zM5 11h1v1H5zM4 11h1v1H4zM3 11h1v1H3zM2 11h1v1H2zM1 11h1v1H1z" opacity="1" data-original="#ffde55" class=""></path><path d="M0 11h1v1H0zM27 10h1v1h-1z" fill="#000000" opacity="1" data-original="#000000" class=""></path><path fill="#ffde55" d="M26 10h1v1h-1zM25 10h1v1h-1zM24 10h1v1h-1zM23 10h1v1h-1zM22 10h1v1h-1zM21 10h1v1h-1zM20 10h1v1h-1zM19 10h1v1h-1zM18 10h1v1h-1zM17 10h1v1h-1z" opacity="1" data-original="#ffde55" class=""></path><path d="M16 10h1v1h-1zM15 10h1v1h-1zM14 10h1v1h-1zM13 10h1v1h-1zM12 10h1v1h-1zM11 10h1v1h-1z" fill="#000000" opacity="1" data-original="#000000" class=""></path><path fill="#ffde55" d="M10 10h1v1h-1zM9 10h1v1H9zM8 10h1v1H8zM7 10h1v1H7zM6 10h1v1H6zM5 10h1v1H5zM4 10h1v1H4zM3 10h1v1H3zM2 10h1v1H2zM1 10h1v1H1z" opacity="1" data-original="#ffde55" class=""></path><path d="M0 10h1v1H0zM27 9h1v1h-1z" fill="#000000" opacity="1" data-original="#000000" class=""></path><path fill="#ffde55" d="M26 9h1v1h-1zM25 9h1v1h-1zM24 9h1v1h-1zM23 9h1v1h-1zM22 9h1v1h-1zM21 9h1v1h-1zM20 9h1v1h-1zM19 9h1v1h-1zM18 9h1v1h-1zM17 9h1v1h-1zM16 9h1v1h-1zM15 9h1v1h-1zM14 9h1v1h-1zM13 9h1v1h-1zM12 9h1v1h-1zM11 9h1v1h-1zM10 9h1v1h-1zM9 9h1v1H9zM8 9h1v1H8zM7 9h1v1H7zM6 9h1v1H6zM5 9h1v1H5zM4 9h1v1H4zM3 9h1v1H3zM2 9h1v1H2z" opacity="1" data-original="#ffde55" class=""></path><path fill="#ffeb99" d="M1 9h1v1H1z" opacity="1" data-original="#ffeb99" class=""></path><path d="M0 9h1v1H0zM27 8h1v1h-1z" fill="#000000" opacity="1" data-original="#000000" class=""></path><g fill="#ffde55"><path d="M26 8h1v1h-1zM25 8h1v1h-1zM24 8h1v1h-1zM23 8h1v1h-1zM22 8h1v1h-1zM21 8h1v1h-1zM20 8h1v1h-1zM19 8h1v1h-1zM18 8h1v1h-1zM17 8h1v1h-1zM16 8h1v1h-1zM15 8h1v1h-1zM14 8h1v1h-1zM13 8h1v1h-1zM12 8h1v1h-1zM11 8h1v1h-1zM10 8h1v1h-1zM9 8h1v1H9zM8 8h1v1H8zM7 8h1v1H7zM6 8h1v1H6zM5 8h1v1H5zM4 8h1v1H4zM3 8h1v1H3zM2 8h1v1H2zM1 8h1v1H1z" fill="#ffde55" opacity="1" data-original="#ffde55" class=""></path></g><path d="M0 8h1v1H0zM27 7h1v1h-1z" fill="#000000" opacity="1" data-original="#000000" class=""></path><path fill="#ffde55" d="M26 7h1v1h-1zM25 7h1v1h-1zM24 7h1v1h-1zM23 7h1v1h-1zM22 7h1v1h-1zM21 7h1v1h-1zM20 7h1v1h-1z" opacity="1" data-original="#ffde55" class=""></path><path d="M19 7h1v1h-1zM18 7h1v1h-1zM17 7h1v1h-1zM16 7h1v1h-1zM15 7h1v1h-1zM14 7h1v1h-1zM13 7h1v1h-1zM12 7h1v1h-1zM11 7h1v1h-1zM10 7h1v1h-1zM9 7h1v1H9zM8 7h1v1H8z" fill="#000000" opacity="1" data-original="#000000" class=""></path><path fill="#ffeb99" d="M7 7h1v1H7z" opacity="1" data-original="#ffeb99" class=""></path><path fill="#ffde55" d="M6 7h1v1H6zM5 7h1v1H5zM4 7h1v1H4z" opacity="1" data-original="#ffde55" class=""></path><path fill="#ffeb99" d="M3 7h1v1H3z" opacity="1" data-original="#ffeb99" class=""></path><path fill="#ffde55" d="M2 7h1v1H2z" opacity="1" data-original="#ffde55" class=""></path><path fill="#ffeb99" d="M1 7h1v1H1z" opacity="1" data-original="#ffeb99" class=""></path><path d="M0 7h1v1H0zM27 6h1v1h-1z" fill="#000000" opacity="1" data-original="#000000" class=""></path><path fill="#ffde55" d="M26 6h1v1h-1zM25 6h1v1h-1z" opacity="1" data-original="#ffde55" class=""></path><path d="M24 6h1v1h-1zM23 6h1v1h-1zM22 6h1v1h-1zM21 6h1v1h-1zM20 6h1v1h-1z" fill="#000000" opacity="1" data-original="#000000" class=""></path><path fill="#898890" d="M19 6h1v1h-1zM18 6h1v1h-1z" opacity="1" data-original="#898890" class=""></path><path fill="#c6c5ca" d="M17 6h1v1h-1zM16 6h1v1h-1zM15 6h1v1h-1zM14 6h1v1h-1zM13 6h1v1h-1zM12 6h1v1h-1zM11 6h1v1h-1zM10 6h1v1h-1zM9 6h1v1H9zM8 6h1v1H8z" opacity="1" data-original="#c6c5ca"></path><path d="M7 6h1v1H7zM6 6h1v1H6zM5 6h1v1H5zM4 6h1v1H4zM3 6h1v1H3z" fill="#000000" opacity="1" data-original="#000000" class=""></path><path fill="#ffeb99" d="M2 6h1v1H2zM1 6h1v1H1z" opacity="1" data-original="#ffeb99" class=""></path><path d="M0 6h1v1H0zM27 5h1v1h-1zM26 5h1v1h-1zM25 5h1v1h-1z" fill="#000000" opacity="1" data-original="#000000" class=""></path><path fill="#898890" d="M24 5h1v1h-1zM23 5h1v1h-1z" opacity="1" data-original="#898890" class=""></path><path fill="#c6c5ca" d="M22 5h1v1h-1z" opacity="1" data-original="#c6c5ca"></path><path fill="#898890" d="M21 5h1v1h-1z" opacity="1" data-original="#898890" class=""></path><path fill="#c6c5ca" d="M20 5h1v1h-1zM19 5h1v1h-1zM18 5h1v1h-1zM17 5h1v1h-1zM16 5h1v1h-1zM15 5h1v1h-1zM14 5h1v1h-1zM13 5h1v1h-1zM12 5h1v1h-1zM11 5h1v1h-1zM10 5h1v1h-1zM9 5h1v1H9zM8 5h1v1H8zM7 5h1v1H7zM6 5h1v1H6zM5 5h1v1H5zM4 5h1v1H4zM3 5h1v1H3z" opacity="1" data-original="#c6c5ca"></path><path d="M2 5h1v1H2zM1 5h1v1H1zM0 5h1v1H0zM27 4h1v1h-1z" fill="#000000" opacity="1" data-original="#000000" class=""></path><path fill="#898890" d="M26 4h1v1h-1zM25 4h1v1h-1z" opacity="1" data-original="#898890" class=""></path><path fill="#c6c5ca" d="M24 4h1v1h-1zM23 4h1v1h-1zM22 4h1v1h-1zM21 4h1v1h-1zM20 4h1v1h-1zM19 4h1v1h-1zM18 4h1v1h-1zM17 4h1v1h-1zM16 4h1v1h-1zM15 4h1v1h-1zM14 4h1v1h-1zM13 4h1v1h-1zM12 4h1v1h-1zM11 4h1v1h-1zM10 4h1v1h-1zM9 4h1v1H9zM8 4h1v1H8zM7 4h1v1H7zM6 4h1v1H6zM5 4h1v1H5zM4 4h1v1H4zM3 4h1v1H3zM2 4h1v1H2z" opacity="1" data-original="#c6c5ca"></path><path fill="#e0e0e2" d="M1 4h1v1H1z" opacity="1" data-original="#e0e0e2"></path><path d="M0 4h1v1H0zM26 3h1v1h-1z" fill="#000000" opacity="1" data-original="#000000" class=""></path><path fill="#c6c5ca" d="M25 3h1v1h-1zM24 3h1v1h-1zM23 3h1v1h-1zM22 3h1v1h-1zM21 3h1v1h-1zM20 3h1v1h-1zM19 3h1v1h-1zM18 3h1v1h-1zM17 3h1v1h-1zM16 3h1v1h-1zM15 3h1v1h-1zM14 3h1v1h-1zM13 3h1v1h-1zM12 3h1v1h-1zM11 3h1v1h-1zM10 3h1v1h-1zM9 3h1v1H9zM8 3h1v1H8zM7 3h1v1H7zM6 3h1v1H6zM5 3h1v1H5zM4 3h1v1H4zM3 3h1v1H3z" opacity="1" data-original="#c6c5ca"></path><path fill="#e0e0e2" d="M2 3h1v1H2z" opacity="1" data-original="#e0e0e2"></path><path d="M1 3h1v1H1zM25 2h1v1h-1z" fill="#000000" opacity="1" data-original="#000000" class=""></path><path fill="#c6c5ca" d="M24 2h1v1h-1zM23 2h1v1h-1zM22 2h1v1h-1zM21 2h1v1h-1zM20 2h1v1h-1zM19 2h1v1h-1zM18 2h1v1h-1zM17 2h1v1h-1zM16 2h1v1h-1zM15 2h1v1h-1zM14 2h1v1h-1zM13 2h1v1h-1zM12 2h1v1h-1zM11 2h1v1h-1zM10 2h1v1h-1zM9 2h1v1H9zM8 2h1v1H8zM7 2h1v1H7z" opacity="1" data-original="#c6c5ca"></path><path fill="#e0e0e2" d="M6 2h1v1H6z" opacity="1" data-original="#e0e0e2"></path><path fill="#c6c5ca" d="M5 2h1v1H5z" opacity="1" data-original="#c6c5ca"></path><path fill="#e0e0e2" d="M4 2h1v1H4zM3 2h1v1H3z" opacity="1" data-original="#e0e0e2"></path><path d="M2 2h1v1H2zM24 1h1v1h-1zM23 1h1v1h-1zM22 1h1v1h-1zM21 1h1v1h-1zM20 1h1v1h-1z" fill="#000000" opacity="1" data-original="#000000" class=""></path><path fill="#c6c5ca" d="M19 1h1v1h-1zM18 1h1v1h-1zM17 1h1v1h-1zM16 1h1v1h-1zM15 1h1v1h-1zM14 1h1v1h-1zM13 1h1v1h-1zM12 1h1v1h-1zM11 1h1v1h-1zM10 1h1v1h-1zM9 1h1v1H9z" opacity="1" data-original="#c6c5ca"></path><path fill="#e0e0e2" d="M8 1h1v1H8z" opacity="1" data-original="#e0e0e2"></path><path fill="#c6c5ca" d="M0 24h1v1H0zM0 16h1v1H0z" opacity="1" data-original="#c6c5ca"></path><path d="M7 1h1v1H7zM6 1h1v1H6zM5 1h1v1H5zM4 1h1v1H4zM3 1h1v1H3zM19 0h1v1h-1zM18 0h1v1h-1zM17 0h1v1h-1zM16 0h1v1h-1zM15 0h1v1h-1zM14 0h1v1h-1zM13 0h1v1h-1zM12 0h1v1h-1zM11 0h1v1h-1zM10 0h1v1h-1zM9 0h1v1H9zM8 0h1v1H8z" fill="#000000" opacity="1" data-original="#000000" class=""></path></g></svg>
