<svg xmlns="http://www.w3.org/2000/svg" version="1.1" xmlns:xlink="http://www.w3.org/1999/xlink" width="512" height="512" x="0" y="0" viewBox="0 0 512 512" style="enable-background:new 0 0 512 512" xml:space="preserve" class=""><g><path d="M481.89 180.71v-60.24h-30.12V90.35h-30.12V60.24h-30.12V30.12H331.3V0H180.71v30.12h-60.23v30.12H90.36v30.11H60.24v30.12H30.12v60.24H0v150.58h30.12v60.24h30.12v30.12h30.12v30.12h30.12v30.11h60.23V512H331.3v-30.12h60.23v-30.11h30.12v-30.12h30.12v-30.12h30.12v-60.24H512V180.71z" fill="#000000" opacity="1" data-original="#000000"></path><g fill="#474f55"><path d="M331.3 150.59h30.12v30.12H331.3zM240.95 240.94h30.11v30.12h-30.11zM180.71 361.41h-60.23v30.12H90.36v30.12h30.12v30.12h60.23v-30.12h30.12v-30.12h-30.12zM180.71 60.24h-60.23v30.11H90.36v30.12H60.24v60.24h120.47v-30.12h30.12V90.35h-30.12zM421.65 271.06v30.12h-30.12v60.23h30.12v30.12h30.12v-60.24h30.12v-60.23z" fill="#474f55" opacity="1" data-original="#474f55"></path></g><path fill="#7c8186" d="M451.77 180.71v-60.24h-30.12V90.35h-30.12V60.24H331.3V30.12H180.71v30.12h30.12v30.11h30.12v60.24h-30.12v30.12h-30.12v30.11H60.24v-30.11H30.12v150.58h30.12v60.24h30.12v-30.12h30.12v-30.12h60.23v30.12h30.12v30.12h30.12v30.12h-30.12v30.12h-30.12v30.11H331.3v-30.11h60.23v-30.12h30.12v-30.12h-30.12v-30.12h-30.11v-60.23h30.11v-30.12h30.12v-30.12h60.24v-60.23zm-180.71 90.35v30.12h-30.11v-30.12h-30.12v-30.12h30.12v-30.12h30.11v30.12h30.12v30.12zm90.36-90.35v30.11H331.3v-30.11h-30.12v-30.12h30.12v-30.12h30.12v30.12h30.11v30.12z" opacity="1" data-original="#7c8186"></path><g fill="#32393f"><path d="M421.65 361.41h30.12v30.12h-30.12zM421.65 271.06h30.12v30.12h-30.12zM391.53 301.18h30.12v60.23h-30.12zM180.71 391.53h30.12v30.12h-30.12zM180.71 120.47h-30.12v30.12h-30.11v30.12h60.23v-30.12h30.12V90.35h-30.12zM150.59 361.41h30.12v30.12h-30.12zM150.59 60.24h30.12v30.11h-30.12zM120.48 421.65h60.23v30.12h-60.23z" fill="#32393f" opacity="1" data-original="#32393f"></path></g><g fill="#474f55"><path d="M451.77 180.71v30.11h-30.12v30.12h60.24v-60.23zM421.65 120.47h30.12v60.24h-30.12zM391.53 391.53h30.12v30.12h-30.12zM391.53 240.94h30.12v30.12h-30.12zM391.53 90.35h30.12v30.12h-30.12z" fill="#474f55" opacity="1" data-original="#474f55"></path><path d="M361.42 361.41h30.11v30.12h-30.11zM361.42 271.06h30.11v30.12h-30.11zM331.3 60.24h60.23v30.11H331.3zM331.3 421.65h60.23v30.12H331.3zM331.3 301.18h30.12v60.23H331.3zM301.18 451.77h30.12v30.11h-30.12zM271.06 30.12h60.24v30.12h-60.24z" fill="#474f55" opacity="1" data-original="#474f55"></path></g></g></svg>
