<svg xmlns="http://www.w3.org/2000/svg" version="1.1" xmlns:xlink="http://www.w3.org/1999/xlink" width="512" height="512" x="0" y="0" viewBox="0 0 512 512" style="enable-background:new 0 0 512 512" xml:space="preserve" class=""><g><path fill="#251e2d" d="M134.078 123.011h22.168v22.165h-22.168z" opacity="1" data-original="#251e2d"></path><path fill="#d0d2d3" d="M156.246 123.011h22.167v22.165h-22.167z" opacity="1" data-original="#d0d2d3"></path><path fill="#e6e7e8" d="M178.414 123.011h22.167v22.165h-22.167z" opacity="1" data-original="#e6e7e8"></path><path fill="#251e2d" d="M200.581 123.011h22.167v22.165h-22.167zM222.749 123.011h22.167v22.165h-22.167zM244.916 123.011h22.168v22.165h-22.168zM267.084 123.011h22.168v22.165h-22.168z" opacity="1" data-original="#251e2d"></path><path fill="#251e2d" d="M289.252 123.011h22.167v22.165h-22.167z" opacity="1" data-original="#251e2d"></path><path fill="#d1d1d1" d="M311.419 123.011h22.167v22.165h-22.167z" opacity="1" data-original="#d1d1d1"></path><path fill="#bbbdbf" d="M333.586 123.011h22.168v22.165h-22.168z" opacity="1" data-original="#bbbdbf"></path><g fill="#251e2d"><path d="M156.246 100.847h22.167v22.164h-22.167zM178.414 100.847h22.167v22.164h-22.167zM200.581 100.847h22.167v22.164h-22.167zM222.749 100.847h22.167v22.164h-22.167zM244.916 100.847h22.168v22.164h-22.168zM267.084 100.847h22.168v22.164h-22.168z" fill="#251e2d" opacity="1" data-original="#251e2d"></path><path d="M222.749 78.682h22.167v22.165h-22.167zM244.916 78.682h22.168v22.165h-22.168zM267.084 78.682h22.168v22.165h-22.168z" fill="#251e2d" opacity="1" data-original="#251e2d"></path><path d="M289.252 100.847h22.167v22.164h-22.167zM311.419 100.847h22.167v22.164h-22.167zM333.586 100.847h22.168v22.164h-22.168zM355.754 123.011h22.168v22.165h-22.168zM134.078 145.176h22.168v22.165h-22.168z" fill="#251e2d" opacity="1" data-original="#251e2d"></path></g><path fill="#d0d2d3" d="M156.246 145.176h22.167v22.165h-22.167z" opacity="1" data-original="#d0d2d3"></path><path fill="#e6e7e8" d="M178.414 145.176h22.167v22.165h-22.167zM200.581 145.176h22.167v22.165h-22.167zM222.749 145.176h22.167v22.165h-22.167zM244.916 145.176h22.168v22.165h-22.168z" opacity="1" data-original="#e6e7e8"></path><path fill="#d1d1d1" d="M267.084 145.176h22.168v22.165h-22.168z" opacity="1" data-original="#d1d1d1"></path><path fill="#d1d1d1" d="M289.252 145.176h22.167v22.165h-22.167zM311.419 145.176h22.167v22.165h-22.167z" opacity="1" data-original="#d1d1d1"></path><path fill="#bbbdbf" d="M333.586 145.176h22.168v22.165h-22.168z" opacity="1" data-original="#bbbdbf"></path><path fill="#251e2d" d="M355.754 145.176h22.168v22.165h-22.168zM134.078 167.341h22.168v22.165h-22.168z" opacity="1" data-original="#251e2d"></path><path fill="#d0d2d3" d="M156.246 167.341h22.167v22.165h-22.167z" opacity="1" data-original="#d0d2d3"></path><path fill="#e6e7e8" d="M178.414 167.341h22.167v22.165h-22.167z" opacity="1" data-original="#e6e7e8"></path><path fill="#a6a8ab" d="M200.581 167.341h22.167v22.165h-22.167zM222.749 167.341h22.167v22.165h-22.167zM244.916 167.341h22.168v22.165h-22.168z" opacity="1" data-original="#a6a8ab"></path><path fill="#d1d1d1" d="M267.084 167.341h22.168v22.165h-22.168z" opacity="1" data-original="#d1d1d1"></path><path fill="#d1d1d1" d="M289.252 167.341h22.167v22.165h-22.167zM311.419 167.341h22.167v22.165h-22.167z" opacity="1" data-original="#d1d1d1"></path><path fill="#bbbdbf" d="M333.586 167.341h22.168v22.165h-22.168z" opacity="1" data-original="#bbbdbf"></path><path fill="#251e2d" d="M355.754 167.341h22.168v22.165h-22.168zM134.078 189.506h22.168v22.165h-22.168z" opacity="1" data-original="#251e2d"></path><path fill="#d0d2d3" d="M156.246 189.506h22.167v22.165h-22.167z" opacity="1" data-original="#d0d2d3"></path><path fill="#e6e7e8" d="M178.414 189.506h22.167v22.165h-22.167zM200.581 189.506h22.167v22.165h-22.167zM222.749 189.506h22.167v22.165h-22.167zM244.916 189.506h22.168v22.165h-22.168z" opacity="1" data-original="#e6e7e8"></path><path fill="#d1d1d1" d="M267.084 189.506h22.168v22.165h-22.168z" opacity="1" data-original="#d1d1d1"></path><path fill="#d1d1d1" d="M289.252 189.506h22.167v22.165h-22.167zM311.419 189.506h22.167v22.165h-22.167z" opacity="1" data-original="#d1d1d1"></path><path fill="#bbbdbf" d="M333.586 189.506h22.168v22.165h-22.168z" opacity="1" data-original="#bbbdbf"></path><path fill="#251e2d" d="M355.754 189.506h22.168v22.165h-22.168zM134.078 211.671h22.168v22.164h-22.168z" opacity="1" data-original="#251e2d"></path><path fill="#d0d2d3" d="M156.246 211.671h22.167v22.164h-22.167z" opacity="1" data-original="#d0d2d3"></path><path fill="#e6e7e8" d="M178.414 211.671h22.167v22.164h-22.167z" opacity="1" data-original="#e6e7e8"></path><path fill="#a6a8ab" d="M200.581 211.671h22.167v22.164h-22.167zM222.749 211.671h22.167v22.164h-22.167zM244.916 211.671h22.168v22.164h-22.168z" opacity="1" data-original="#a6a8ab"></path><path fill="#d1d1d1" d="M267.084 211.671h22.168v22.164h-22.168z" opacity="1" data-original="#d1d1d1"></path><path fill="#d1d1d1" d="M289.252 211.671h22.167v22.164h-22.167zM311.419 211.671h22.167v22.164h-22.167z" opacity="1" data-original="#d1d1d1"></path><path fill="#bbbdbf" d="M333.586 211.671h22.168v22.164h-22.168z" opacity="1" data-original="#bbbdbf"></path><path fill="#251e2d" d="M355.754 211.671h22.168v22.164h-22.168zM134.078 233.835h22.168V256h-22.168z" opacity="1" data-original="#251e2d"></path><path fill="#d0d2d3" d="M156.246 233.835h22.167V256h-22.167z" opacity="1" data-original="#d0d2d3"></path><path fill="#e6e7e8" d="M178.414 233.835h22.167V256h-22.167zM200.581 233.835h22.167V256h-22.167zM222.749 233.835h22.167V256h-22.167zM244.916 233.835h22.168V256h-22.168z" opacity="1" data-original="#e6e7e8"></path><path fill="#d1d1d1" d="M267.084 233.835h22.168V256h-22.168z" opacity="1" data-original="#d1d1d1"></path><path fill="#d1d1d1" d="M289.252 233.835h22.167V256h-22.167zM311.419 233.835h22.167V256h-22.167z" opacity="1" data-original="#d1d1d1"></path><path fill="#bbbdbf" d="M333.586 233.835h22.168V256h-22.168z" opacity="1" data-original="#bbbdbf"></path><path fill="#251e2d" d="M355.754 233.835h22.168V256h-22.168zM134.078 256h22.168v22.165h-22.168z" opacity="1" data-original="#251e2d"></path><path fill="#d0d2d3" d="M156.246 256h22.167v22.165h-22.167z" opacity="1" data-original="#d0d2d3"></path><path fill="#e6e7e8" d="M178.414 256h22.167v22.165h-22.167z" opacity="1" data-original="#e6e7e8"></path><path fill="#a6a8ab" d="M200.581 256h22.167v22.165h-22.167zM222.749 256h22.167v22.165h-22.167z" opacity="1" data-original="#a6a8ab"></path><path fill="#e6e7e8" d="M244.916 256h22.168v22.165h-22.168z" opacity="1" data-original="#e6e7e8"></path><path fill="#d1d1d1" d="M267.084 256h22.168v22.165h-22.168z" opacity="1" data-original="#d1d1d1"></path><path fill="#d1d1d1" d="M289.252 256h22.167v22.165h-22.167zM311.419 256h22.167v22.165h-22.167z" opacity="1" data-original="#d1d1d1"></path><path fill="#bbbdbf" d="M333.586 256h22.168v22.165h-22.168z" opacity="1" data-original="#bbbdbf"></path><path fill="#251e2d" d="M355.754 256h22.168v22.165h-22.168zM134.078 278.165h22.168v22.165h-22.168z" opacity="1" data-original="#251e2d"></path><path fill="#d0d2d3" d="M156.246 278.165h22.167v22.165h-22.167z" opacity="1" data-original="#d0d2d3"></path><path fill="#e6e7e8" d="M178.414 278.165h22.167v22.165h-22.167zM200.581 278.165h22.167v22.165h-22.167zM222.749 278.165h22.167v22.165h-22.167zM244.916 278.165h22.168v22.165h-22.168z" opacity="1" data-original="#e6e7e8"></path><path fill="#d1d1d1" d="M267.084 278.165h22.168v22.165h-22.168z" opacity="1" data-original="#d1d1d1"></path><path fill="#d1d1d1" d="M289.252 278.165h22.167v22.165h-22.167zM311.419 278.165h22.167v22.165h-22.167z" opacity="1" data-original="#d1d1d1"></path><path fill="#bbbdbf" d="M333.586 278.165h22.168v22.165h-22.168z" opacity="1" data-original="#bbbdbf"></path><path fill="#251e2d" d="M355.754 278.165h22.168v22.165h-22.168zM134.078 300.33h22.168v22.164h-22.168z" opacity="1" data-original="#251e2d"></path><path fill="#d0d2d3" d="M156.246 300.33h22.167v22.164h-22.167z" opacity="1" data-original="#d0d2d3"></path><path fill="#e6e7e8" d="M178.414 300.33h22.167v22.164h-22.167z" opacity="1" data-original="#e6e7e8"></path><path fill="#a6a8ab" d="M200.581 300.33h22.167v22.164h-22.167zM222.749 300.33h22.167v22.164h-22.167zM244.916 300.33h22.168v22.164h-22.168z" opacity="1" data-original="#a6a8ab"></path><path fill="#929497" d="M267.084 300.33h22.168v22.164h-22.168z" opacity="1" data-original="#929497"></path><path fill="#d1d1d1" d="M289.252 300.33h22.167v22.164h-22.167zM311.419 300.33h22.167v22.164h-22.167z" opacity="1" data-original="#d1d1d1"></path><path fill="#bbbdbf" d="M333.586 300.33h22.168v22.164h-22.168z" opacity="1" data-original="#bbbdbf"></path><path fill="#251e2d" d="M355.754 300.33h22.168v22.164h-22.168zM134.078 322.494h22.168v22.165h-22.168z" opacity="1" data-original="#251e2d"></path><path fill="#d0d2d3" d="M156.246 322.494h22.167v22.165h-22.167z" opacity="1" data-original="#d0d2d3"></path><path fill="#e6e7e8" d="M178.414 322.494h22.167v22.165h-22.167zM200.581 322.494h22.167v22.165h-22.167zM222.749 322.494h22.167v22.165h-22.167zM244.916 322.494h22.168v22.165h-22.168z" opacity="1" data-original="#e6e7e8"></path><path fill="#d1d1d1" d="M267.084 322.494h22.168v22.165h-22.168z" opacity="1" data-original="#d1d1d1"></path><path fill="#d1d1d1" d="M289.252 322.494h22.167v22.165h-22.167zM311.419 322.494h22.167v22.165h-22.167z" opacity="1" data-original="#d1d1d1"></path><path fill="#bbbdbf" d="M333.586 322.494h22.168v22.165h-22.168z" opacity="1" data-original="#bbbdbf"></path><path fill="#251e2d" d="M355.754 322.494h22.168v22.165h-22.168zM134.078 344.659h22.168v22.165h-22.168z" opacity="1" data-original="#251e2d"></path><path fill="#d0d2d3" d="M156.246 344.659h22.167v22.165h-22.167z" opacity="1" data-original="#d0d2d3"></path><path fill="#e6e7e8" d="M178.414 344.659h22.167v22.165h-22.167z" opacity="1" data-original="#e6e7e8"></path><path fill="#a6a8ab" d="M200.581 344.659h22.167v22.165h-22.167zM222.749 344.659h22.167v22.165h-22.167zM244.916 344.659h22.168v22.165h-22.168z" opacity="1" data-original="#a6a8ab"></path><path fill="#929497" d="M267.084 344.659h22.168v22.165h-22.168z" opacity="1" data-original="#929497"></path><path fill="#929497" d="M289.252 344.659h22.167v22.165h-22.167z" opacity="1" data-original="#929497"></path><path fill="#d1d1d1" d="M311.419 344.659h22.167v22.165h-22.167z" opacity="1" data-original="#d1d1d1"></path><path fill="#bbbdbf" d="M333.586 344.659h22.168v22.165h-22.168z" opacity="1" data-original="#bbbdbf"></path><path fill="#251e2d" d="M355.754 344.659h22.168v22.165h-22.168zM134.078 366.824h22.168v22.165h-22.168z" opacity="1" data-original="#251e2d"></path><path fill="#d0d2d3" d="M156.246 366.824h22.167v22.165h-22.167z" opacity="1" data-original="#d0d2d3"></path><path fill="#e6e7e8" d="M178.414 366.824h22.167v22.165h-22.167zM200.581 366.824h22.167v22.165h-22.167zM222.749 366.824h22.167v22.165h-22.167zM244.916 366.824h22.168v22.165h-22.168z" opacity="1" data-original="#e6e7e8"></path><path fill="#d1d1d1" d="M267.084 366.824h22.168v22.165h-22.168z" opacity="1" data-original="#d1d1d1"></path><path fill="#d1d1d1" d="M289.252 366.824h22.167v22.165h-22.167zM311.419 366.824h22.167v22.165h-22.167z" opacity="1" data-original="#d1d1d1"></path><path fill="#bbbdbf" d="M333.586 366.824h22.168v22.165h-22.168z" opacity="1" data-original="#bbbdbf"></path><path fill="#251e2d" d="M355.754 366.824h22.168v22.165h-22.168zM134.078 388.989h22.168v22.164h-22.168z" opacity="1" data-original="#251e2d"></path><path fill="#d0d2d3" d="M156.246 388.989h22.167v22.164h-22.167zM178.414 388.989h22.167v22.164h-22.167zM200.581 388.989h22.167v22.164h-22.167zM222.749 388.989h22.167v22.164h-22.167zM244.916 388.989h22.168v22.164h-22.168z" opacity="1" data-original="#d0d2d3"></path><path fill="#bbbdbf" d="M267.084 388.989h22.168v22.164h-22.168z" opacity="1" data-original="#bbbdbf"></path><path fill="#bbbdbf" d="M289.252 388.989h22.167v22.164h-22.167zM311.419 388.989h22.167v22.164h-22.167zM333.586 388.989h22.168v22.164h-22.168z" opacity="1" data-original="#bbbdbf"></path><path fill="#251e2d" d="M355.754 388.989h22.168v22.164h-22.168zM156.246 411.153h22.167v22.165h-22.167zM178.414 411.153h22.167v22.165h-22.167zM200.581 411.153h22.167v22.165h-22.167zM222.749 411.153h22.167v22.165h-22.167zM244.916 411.153h22.168v22.165h-22.168zM267.084 411.153h22.168v22.165h-22.168z" opacity="1" data-original="#251e2d"></path><path fill="#251e2d" d="M289.252 411.153h22.167v22.165h-22.167zM311.419 411.153h22.167v22.165h-22.167zM333.586 411.153h22.168v22.165h-22.168z" opacity="1" data-original="#251e2d"></path></g></svg>
