<svg xmlns="http://www.w3.org/2000/svg" version="1.1" xmlns:xlink="http://www.w3.org/1999/xlink" width="512" height="512" x="0" y="0" viewBox="0 0 32 32" style="enable-background:new 0 0 512 512" xml:space="preserve" class=""><g><path d="M21 31h1v1h-1zM20 31h1v1h-1zM19 31h1v1h-1zM18 31h1v1h-1zM17 31h1v1h-1zM16 31h1v1h-1zM15 31h1v1h-1zM14 31h1v1h-1zM13 31h1v1h-1zM12 31h1v1h-1zM11 31h1v1h-1zM10 31h1v1h-1zM20 30h1v1h-1z" fill="#000000" opacity="1" data-original="#000000" class=""></path><path fill="#898890" d="M19 30h1v1h-1zM18 30h1v1h-1zM17 30h1v1h-1z" opacity="1" data-original="#898890"></path><path fill="#c6c5ca" d="M16 30h1v1h-1zM15 30h1v1h-1zM14 30h1v1h-1zM13 30h1v1h-1z" opacity="1" data-original="#c6c5ca"></path><path fill="#e0e0e2" d="M12 30h1v1h-1z" opacity="1" data-original="#e0e0e2"></path><path d="M11 30h1v1h-1zM19 29h1v1h-1z" fill="#000000" opacity="1" data-original="#000000" class=""></path><path fill="#898890" d="M18 29h1v1h-1z" opacity="1" data-original="#898890"></path><path fill="#c6c5ca" d="M17 29h1v1h-1zM16 29h1v1h-1zM15 29h1v1h-1z" opacity="1" data-original="#c6c5ca"></path><path fill="#e0e0e2" d="M14 29h1v1h-1zM13 29h1v1h-1z" opacity="1" data-original="#e0e0e2"></path><path d="M12 29h1v1h-1zM18 28h1v1h-1zM17 28h1v1h-1zM16 28h1v1h-1zM15 28h1v1h-1zM14 28h1v1h-1zM13 28h1v1h-1zM16 27h1v1h-1zM15 27h1v1h-1zM16 26h1v1h-1zM15 26h1v1h-1zM17 25h1v1h-1z" fill="#000000" opacity="1" data-original="#000000" class=""></path><path fill="#c6c5ca" d="M16 25h1v1h-1zM15 25h1v1h-1z" opacity="1" data-original="#c6c5ca"></path><path d="M14 25h1v1h-1zM18 24h1v1h-1z" fill="#000000" opacity="1" data-original="#000000" class=""></path><path fill="#c6c5ca" d="M17 24h1v1h-1zM16 24h1v1h-1zM15 24h1v1h-1z" opacity="1" data-original="#c6c5ca"></path><path fill="#e0e0e2" d="M14 24h1v1h-1z" opacity="1" data-original="#e0e0e2"></path><path d="M13 24h1v1h-1zM30 23h1v1h-1zM29 23h1v1h-1zM28 23h1v1h-1zM27 23h1v1h-1zM26 23h1v1h-1zM25 23h1v1h-1zM24 23h1v1h-1z" fill="#000000" opacity="1" data-original="#000000" class=""></path><path d="M24 23h1v1h-1zM23 23h1v1h-1zM22 23h1v1h-1zM21 23h1v1h-1zM20 23h1v1h-1zM19 23h1v1h-1zM18 23h1v1h-1zM17 23h1v1h-1zM16 23h1v1h-1zM15 23h1v1h-1zM14 23h1v1h-1zM13 23h1v1h-1zM12 23h1v1h-1zM11 23h1v1h-1zM10 23h1v1h-1zM9 23h1v1H9z" fill="#000000" opacity="1" data-original="#000000" class=""></path><path d="M9 23h1v1H9zM8 23h1v1H8zM7 23h1v1H7zM6 23h1v1H6zM5 23h1v1H5zM4 23h1v1H4zM3 23h1v1H3zM2 23h1v1H2zM1 23h1v1H1zM30 22h1v1h-1z" fill="#000000" opacity="1" data-original="#000000" class=""></path><path fill="#00d7df" d="M29 22h1v1h-1zM28 22h1v1h-1zM27 22h1v1h-1z" opacity="1" data-original="#00d7df"></path><path fill="#46f8ff" d="M26 22h1v1h-1z" opacity="1" data-original="#46f8ff" class=""></path><path fill="#00d7df" d="M25 22h1v1h-1z" opacity="1" data-original="#00d7df"></path><g fill="#46f8ff"><path d="M24 22h1v1h-1z" fill="#46f8ff" opacity="1" data-original="#46f8ff" class=""></path><path d="M24 22h1v1h-1zM23 22h1v1h-1zM22 22h1v1h-1zM21 22h1v1h-1zM20 22h1v1h-1zM19 22h1v1h-1zM18 22h1v1h-1zM17 22h1v1h-1zM16 22h1v1h-1zM15 22h1v1h-1zM14 22h1v1h-1zM13 22h1v1h-1zM12 22h1v1h-1zM11 22h1v1h-1zM10 22h1v1h-1zM9 22h1v1H9z" fill="#46f8ff" opacity="1" data-original="#46f8ff" class=""></path><path d="M9 22h1v1H9zM8 22h1v1H8zM7 22h1v1H7zM6 22h1v1H6zM5 22h1v1H5zM4 22h1v1H4zM3 22h1v1H3zM2 22h1v1H2z" fill="#46f8ff" opacity="1" data-original="#46f8ff" class=""></path></g><path d="M1 22h1v1H1zM30 21h1v1h-1z" fill="#000000" opacity="1" data-original="#000000" class=""></path><path fill="#00d7df" d="M29 21h1v1h-1z" opacity="1" data-original="#00d7df"></path><path fill="#46f8ff" d="M28 21h1v1h-1zM27 21h1v1h-1zM26 21h1v1h-1zM25 21h1v1h-1zM24 21h1v1h-1z" opacity="1" data-original="#46f8ff" class=""></path><path fill="#46f8ff" d="M24 21h1v1h-1zM23 21h1v1h-1zM22 21h1v1h-1z" opacity="1" data-original="#46f8ff" class=""></path><path d="M21 21h1v1h-1zM20 21h1v1h-1zM19 21h1v1h-1zM18 21h1v1h-1zM17 21h1v1h-1zM16 21h1v1h-1zM15 21h1v1h-1zM14 21h1v1h-1zM13 21h1v1h-1zM12 21h1v1h-1zM11 21h1v1h-1zM10 21h1v1h-1zM9 21h1v1H9z" fill="#000000" opacity="1" data-original="#000000" class=""></path><path d="M9 21h1v1H9zM8 21h1v1H8z" fill="#000000" opacity="1" data-original="#000000" class=""></path><path fill="#46f8ff" d="M7 21h1v1H7zM6 21h1v1H6zM5 21h1v1H5zM4 21h1v1H4zM3 21h1v1H3zM2 21h1v1H2z" opacity="1" data-original="#46f8ff" class=""></path><path d="M1 21h1v1H1zM30 20h1v1h-1z" fill="#000000" opacity="1" data-original="#000000" class=""></path><path fill="#46f8ff" d="M29 20h1v1h-1zM28 20h1v1h-1z" opacity="1" data-original="#46f8ff" class=""></path><path fill="#00d7df" d="M27 20h1v1h-1z" opacity="1" data-original="#00d7df"></path><path fill="#46f8ff" d="M26 20h1v1h-1zM25 20h1v1h-1zM24 20h1v1h-1z" opacity="1" data-original="#46f8ff" class=""></path><path fill="#46f8ff" d="M24 20h1v1h-1zM23 20h1v1h-1z" opacity="1" data-original="#46f8ff" class=""></path><path d="M22 20h1v1h-1z" fill="#000000" opacity="1" data-original="#000000" class=""></path><path fill="#46f8ff" d="M21 20h1v1h-1zM20 20h1v1h-1zM19 20h1v1h-1zM18 20h1v1h-1zM17 20h1v1h-1zM16 20h1v1h-1zM15 20h1v1h-1zM14 20h1v1h-1zM13 20h1v1h-1zM12 20h1v1h-1zM11 20h1v1h-1zM10 20h1v1h-1zM9 20h1v1H9z" opacity="1" data-original="#46f8ff" class=""></path><path fill="#46f8ff" d="M9 20h1v1H9zM8 20h1v1H8z" opacity="1" data-original="#46f8ff" class=""></path><path d="M7 20h1v1H7z" fill="#000000" opacity="1" data-original="#000000" class=""></path><path fill="#46f8ff" d="M6 20h1v1H6zM5 20h1v1H5zM4 20h1v1H4zM3 20h1v1H3zM2 20h1v1H2z" opacity="1" data-original="#46f8ff" class=""></path><path d="M1 20h1v1H1zM30 19h1v1h-1z" fill="#000000" opacity="1" data-original="#000000" class=""></path><path fill="#00d7df" d="M29 19h1v1h-1z" opacity="1" data-original="#00d7df"></path><path fill="#46f8ff" d="M28 19h1v1h-1zM27 19h1v1h-1zM26 19h1v1h-1zM25 19h1v1h-1zM24 19h1v1h-1z" opacity="1" data-original="#46f8ff" class=""></path><path d="M24 19h1v1h-1zM23 19h1v1h-1z" fill="#000000" opacity="1" data-original="#000000" class=""></path><path fill="#46f8ff" d="M22 19h1v1h-1zM21 19h1v1h-1zM20 19h1v1h-1zM19 19h1v1h-1zM18 19h1v1h-1zM17 19h1v1h-1zM16 19h1v1h-1zM15 19h1v1h-1zM14 19h1v1h-1zM13 19h1v1h-1zM12 19h1v1h-1zM11 19h1v1h-1zM10 19h1v1h-1zM9 19h1v1H9z" opacity="1" data-original="#46f8ff" class=""></path><path fill="#46f8ff" d="M9 19h1v1H9zM8 19h1v1H8zM7 19h1v1H7z" opacity="1" data-original="#46f8ff" class=""></path><path d="M6 19h1v1H6z" fill="#000000" opacity="1" data-original="#000000" class=""></path><path fill="#46f8ff" d="M5 19h1v1H5zM4 19h1v1H4zM3 19h1v1H3zM2 19h1v1H2z" opacity="1" data-original="#46f8ff" class=""></path><path d="M1 19h1v1H1zM30 18h1v1h-1z" fill="#000000" opacity="1" data-original="#000000" class=""></path><path fill="#46f8ff" d="M29 18h1v1h-1zM28 18h1v1h-1zM27 18h1v1h-1zM26 18h1v1h-1zM25 18h1v1h-1z" opacity="1" data-original="#46f8ff" class=""></path><path d="M24 18h1v1h-1z" fill="#000000" opacity="1" data-original="#000000" class=""></path><path fill="#46f8ff" d="M23 18h1v1h-1zM22 18h1v1h-1zM21 18h1v1h-1zM20 18h1v1h-1zM19 18h1v1h-1zM18 18h1v1h-1zM17 18h1v1h-1zM16 18h1v1h-1zM15 18h1v1h-1zM14 18h1v1h-1zM13 18h1v1h-1zM12 18h1v1h-1zM11 18h1v1h-1zM10 18h1v1h-1zM9 18h1v1H9z" opacity="1" data-original="#46f8ff" class=""></path><path fill="#46f8ff" d="M9 18h1v1H9zM8 18h1v1H8zM7 18h1v1H7zM6 18h1v1H6zM5 18h1v1H5zM4 18h1v1H4zM3 18h1v1H3zM2 18h1v1H2z" opacity="1" data-original="#46f8ff" class=""></path><path d="M1 18h1v1H1zM30 17h1v1h-1z" fill="#000000" opacity="1" data-original="#000000" class=""></path><path fill="#46f8ff" d="M29 17h1v1h-1zM28 17h1v1h-1zM27 17h1v1h-1zM26 17h1v1h-1zM25 17h1v1h-1z" opacity="1" data-original="#46f8ff" class=""></path><path d="M24 17h1v1h-1z" fill="#000000" opacity="1" data-original="#000000" class=""></path><path fill="#46f8ff" d="M23 17h1v1h-1zM22 17h1v1h-1zM21 17h1v1h-1zM20 17h1v1h-1zM19 17h1v1h-1zM18 17h1v1h-1zM17 17h1v1h-1zM16 17h1v1h-1zM15 17h1v1h-1zM14 17h1v1h-1zM13 17h1v1h-1zM12 17h1v1h-1zM11 17h1v1h-1zM10 17h1v1h-1zM9 17h1v1H9z" opacity="1" data-original="#46f8ff" class=""></path><path fill="#46f8ff" d="M9 17h1v1H9zM8 17h1v1H8zM7 17h1v1H7zM6 17h1v1H6zM5 17h1v1H5zM4 17h1v1H4zM3 17h1v1H3zM2 17h1v1H2z" opacity="1" data-original="#46f8ff" class=""></path><path d="M1 17h1v1H1zM30 16h1v1h-1z" fill="#000000" opacity="1" data-original="#000000" class=""></path><path fill="#46f8ff" d="M29 16h1v1h-1zM28 16h1v1h-1zM27 16h1v1h-1zM26 16h1v1h-1zM25 16h1v1h-1zM24 16h1v1h-1z" opacity="1" data-original="#46f8ff" class=""></path><path fill="#46f8ff" d="M24 16h1v1h-1zM23 16h1v1h-1zM22 16h1v1h-1zM21 16h1v1h-1zM20 16h1v1h-1zM19 16h1v1h-1zM18 16h1v1h-1zM17 16h1v1h-1zM16 16h1v1h-1zM15 16h1v1h-1zM14 16h1v1h-1zM13 16h1v1h-1zM12 16h1v1h-1zM11 16h1v1h-1zM10 16h1v1h-1zM9 16h1v1H9z" opacity="1" data-original="#46f8ff" class=""></path><path fill="#46f8ff" d="M9 16h1v1H9zM8 16h1v1H8zM7 16h1v1H7z" opacity="1" data-original="#46f8ff" class=""></path><path d="M6 16h1v1H6z" fill="#000000" opacity="1" data-original="#000000" class=""></path><path fill="#46f8ff" d="M5 16h1v1H5zM4 16h1v1H4zM3 16h1v1H3zM2 16h1v1H2z" opacity="1" data-original="#46f8ff" class=""></path><path d="M1 16h1v1H1zM30 15h1v1h-1z" fill="#000000" opacity="1" data-original="#000000" class=""></path><path fill="#46f8ff" d="M29 15h1v1h-1zM28 15h1v1h-1zM27 15h1v1h-1zM26 15h1v1h-1zM25 15h1v1h-1zM24 15h1v1h-1z" opacity="1" data-original="#46f8ff" class=""></path><path fill="#46f8ff" d="M24 15h1v1h-1zM23 15h1v1h-1zM22 15h1v1h-1zM21 15h1v1h-1zM20 15h1v1h-1zM19 15h1v1h-1zM18 15h1v1h-1zM17 15h1v1h-1zM16 15h1v1h-1zM15 15h1v1h-1zM14 15h1v1h-1zM13 15h1v1h-1zM12 15h1v1h-1zM11 15h1v1h-1zM10 15h1v1h-1zM9 15h1v1H9z" opacity="1" data-original="#46f8ff" class=""></path><path fill="#46f8ff" d="M9 15h1v1H9zM8 15h1v1H8z" opacity="1" data-original="#46f8ff" class=""></path><path d="M7 15h1v1H7zM6 15h1v1H6z" fill="#000000" opacity="1" data-original="#000000" class=""></path><path fill="#46f8ff" d="M5 15h1v1H5zM4 15h1v1H4zM3 15h1v1H3zM2 15h1v1H2z" opacity="1" data-original="#46f8ff" class=""></path><path d="M1 15h1v1H1zM30 14h1v1h-1z" fill="#000000" opacity="1" data-original="#000000" class=""></path><path fill="#46f8ff" d="M29 14h1v1h-1zM28 14h1v1h-1z" opacity="1" data-original="#46f8ff" class=""></path><path d="M27 14h1v1h-1zM26 14h1v1h-1zM25 14h1v1h-1zM24 14h1v1h-1z" fill="#000000" opacity="1" data-original="#000000" class=""></path><path d="M24 14h1v1h-1zM23 14h1v1h-1zM22 14h1v1h-1zM21 14h1v1h-1zM20 14h1v1h-1z" fill="#000000" opacity="1" data-original="#000000" class=""></path><path fill="#46f8ff" d="M19 14h1v1h-1zM18 14h1v1h-1zM17 14h1v1h-1zM16 14h1v1h-1zM15 14h1v1h-1zM14 14h1v1h-1zM13 14h1v1h-1zM12 14h1v1h-1zM11 14h1v1h-1zM10 14h1v1h-1zM9 14h1v1H9z" opacity="1" data-original="#46f8ff" class=""></path><path d="M9 14h1v1H9zM8 14h1v1H8z" fill="#000000" opacity="1" data-original="#000000" class=""></path><path fill="#ebbf00" d="M7 14h1v1H7z" opacity="1" data-original="#ebbf00"></path><path d="M6 14h1v1H6z" fill="#000000" opacity="1" data-original="#000000" class=""></path><path fill="#46f8ff" d="M5 14h1v1H5zM4 14h1v1H4zM3 14h1v1H3zM2 14h1v1H2z" opacity="1" data-original="#46f8ff" class=""></path><path d="M1 14h1v1H1zM30 13h1v1h-1z" fill="#000000" opacity="1" data-original="#000000" class=""></path><path fill="#46f8ff" d="M29 13h1v1h-1zM28 13h1v1h-1z" opacity="1" data-original="#46f8ff" class=""></path><path d="M27 13h1v1h-1z" fill="#000000" opacity="1" data-original="#000000" class=""></path><path fill="#006df0" d="M26 13h1v1h-1z" opacity="1" data-original="#006df0"></path><path fill="#57a4ff" d="M25 13h1v1h-1zM24 13h1v1h-1z" opacity="1" data-original="#57a4ff"></path><path fill="#57a4ff" d="M24 13h1v1h-1zM23 13h1v1h-1zM22 13h1v1h-1zM21 13h1v1h-1z" opacity="1" data-original="#57a4ff"></path><path d="M20 13h1v1h-1z" fill="#000000" opacity="1" data-original="#000000" class=""></path><path fill="#46f8ff" d="M19 13h1v1h-1zM18 13h1v1h-1zM17 13h1v1h-1zM16 13h1v1h-1zM15 13h1v1h-1zM14 13h1v1h-1zM13 13h1v1h-1zM12 13h1v1h-1zM11 13h1v1h-1zM10 13h1v1h-1z" opacity="1" data-original="#46f8ff" class=""></path><path d="M9 13h1v1H9z" fill="#000000" opacity="1" data-original="#000000" class=""></path><path fill="#ffde55" d="M9 13h1v1H9zM8 13h1v1H8zM7 13h1v1H7z" opacity="1" data-original="#ffde55"></path><path d="M6 13h1v1H6zM5 13h1v1H5zM4 13h1v1H4z" fill="#000000" opacity="1" data-original="#000000" class=""></path><path fill="#46f8ff" d="M3 13h1v1H3zM2 13h1v1H2z" opacity="1" data-original="#46f8ff" class=""></path><path d="M1 13h1v1H1zM30 12h1v1h-1z" fill="#000000" opacity="1" data-original="#000000" class=""></path><path fill="#46f8ff" d="M29 12h1v1h-1zM28 12h1v1h-1z" opacity="1" data-original="#46f8ff" class=""></path><path d="M27 12h1v1h-1z" fill="#000000" opacity="1" data-original="#000000" class=""></path><path fill="#57a4ff" d="M26 12h1v1h-1z" opacity="1" data-original="#57a4ff"></path><path d="M25 12h1v1h-1zM24 12h1v1h-1z" fill="#000000" opacity="1" data-original="#000000" class=""></path><path d="M24 12h1v1h-1zM23 12h1v1h-1zM22 12h1v1h-1z" fill="#000000" opacity="1" data-original="#000000" class=""></path><path fill="#57a4ff" d="M21 12h1v1h-1z" opacity="1" data-original="#57a4ff"></path><path d="M20 12h1v1h-1z" fill="#000000" opacity="1" data-original="#000000" class=""></path><path fill="#46f8ff" d="M19 12h1v1h-1zM18 12h1v1h-1zM17 12h1v1h-1zM16 12h1v1h-1zM15 12h1v1h-1zM14 12h1v1h-1zM13 12h1v1h-1zM12 12h1v1h-1zM11 12h1v1h-1zM10 12h1v1h-1z" opacity="1" data-original="#46f8ff" class=""></path><path d="M9 12h1v1H9z" fill="#000000" opacity="1" data-original="#000000" class=""></path><path d="M9 12h1v1H9zM8 12h1v1H8zM7 12h1v1H7z" fill="#000000" opacity="1" data-original="#000000" class=""></path><path fill="#ffde55" d="M6 12h1v1H6zM5 12h1v1H5z" opacity="1" data-original="#ffde55"></path><path d="M4 12h1v1H4z" fill="#000000" opacity="1" data-original="#000000" class=""></path><path fill="#46f8ff" d="M3 12h1v1H3zM2 12h1v1H2z" opacity="1" data-original="#46f8ff" class=""></path><path d="M1 12h1v1H1zM30 11h1v1h-1z" fill="#000000" opacity="1" data-original="#000000" class=""></path><path fill="#46f8ff" d="M29 11h1v1h-1zM28 11h1v1h-1z" opacity="1" data-original="#46f8ff" class=""></path><path d="M27 11h1v1h-1zM26 11h1v1h-1zM25 11h1v1h-1zM24 11h1v1h-1z" fill="#000000" opacity="1" data-original="#000000" class=""></path><path d="M24 11h1v1h-1zM23 11h1v1h-1zM22 11h1v1h-1zM21 11h1v1h-1zM20 11h1v1h-1z" fill="#000000" opacity="1" data-original="#000000" class=""></path><path fill="#46f8ff" d="M19 11h1v1h-1zM18 11h1v1h-1zM17 11h1v1h-1zM16 11h1v1h-1zM15 11h1v1h-1zM14 11h1v1h-1zM13 11h1v1h-1zM12 11h1v1h-1zM11 11h1v1h-1zM10 11h1v1h-1zM9 11h1v1H9z" opacity="1" data-original="#46f8ff" class=""></path><path fill="#46f8ff" d="M9 11h1v1H9zM8 11h1v1H8z" opacity="1" data-original="#46f8ff" class=""></path><path d="M7 11h1v1H7z" fill="#000000" opacity="1" data-original="#000000" class=""></path><path fill="#ffeb99" d="M6 11h1v1H6z" opacity="1" data-original="#ffeb99"></path><path d="M5 11h1v1H5z" fill="#000000" opacity="1" data-original="#000000" class=""></path><path fill="#46f8ff" d="M4 11h1v1H4zM3 11h1v1H3zM2 11h1v1H2z" opacity="1" data-original="#46f8ff" class=""></path><path d="M1 11h1v1H1zM30 10h1v1h-1z" fill="#000000" opacity="1" data-original="#000000" class=""></path><path fill="#46f8ff" d="M29 10h1v1h-1zM28 10h1v1h-1z" opacity="1" data-original="#46f8ff" class=""></path><path d="M27 10h1v1h-1z" fill="#000000" opacity="1" data-original="#000000" class=""></path><path fill="#006df0" d="M26 10h1v1h-1z" opacity="1" data-original="#006df0"></path><path fill="#57a4ff" d="M25 10h1v1h-1zM24 10h1v1h-1z" opacity="1" data-original="#57a4ff"></path><path fill="#57a4ff" d="M24 10h1v1h-1zM23 10h1v1h-1zM22 10h1v1h-1zM21 10h1v1h-1z" opacity="1" data-original="#57a4ff"></path><path d="M20 10h1v1h-1z" fill="#000000" opacity="1" data-original="#000000" class=""></path><path fill="#46f8ff" d="M19 10h1v1h-1zM18 10h1v1h-1z" opacity="1" data-original="#46f8ff" class=""></path><path d="M17 10h1v1h-1zM16 10h1v1h-1zM15 10h1v1h-1zM14 10h1v1h-1zM13 10h1v1h-1zM12 10h1v1h-1zM11 10h1v1h-1zM10 10h1v1h-1z" fill="#000000" opacity="1" data-original="#000000" class=""></path><path fill="#46f8ff" d="M9 10h1v1H9z" opacity="1" data-original="#46f8ff" class=""></path><path fill="#46f8ff" d="M9 10h1v1H9zM8 10h1v1H8z" opacity="1" data-original="#46f8ff" class=""></path><path d="M7 10h1v1H7zM6 10h1v1H6z" fill="#000000" opacity="1" data-original="#000000" class=""></path><path fill="#46f8ff" d="M5 10h1v1H5zM4 10h1v1H4zM3 10h1v1H3zM2 10h1v1H2z" opacity="1" data-original="#46f8ff" class=""></path><path d="M1 10h1v1H1zM30 9h1v1h-1z" fill="#000000" opacity="1" data-original="#000000" class=""></path><path fill="#46f8ff" d="M29 9h1v1h-1zM28 9h1v1h-1z" opacity="1" data-original="#46f8ff" class=""></path><path d="M27 9h1v1h-1z" fill="#000000" opacity="1" data-original="#000000" class=""></path><path fill="#57a4ff" d="M26 9h1v1h-1z" opacity="1" data-original="#57a4ff"></path><path d="M25 9h1v1h-1zM24 9h1v1h-1z" fill="#000000" opacity="1" data-original="#000000" class=""></path><path d="M24 9h1v1h-1zM23 9h1v1h-1zM22 9h1v1h-1z" fill="#000000" opacity="1" data-original="#000000" class=""></path><path fill="#bddbff" d="M21 9h1v1h-1z" opacity="1" data-original="#bddbff"></path><path d="M20 9h1v1h-1z" fill="#000000" opacity="1" data-original="#000000" class=""></path><path fill="#46f8ff" d="M19 9h1v1h-1zM18 9h1v1h-1zM17 9h1v1h-1zM16 9h1v1h-1zM15 9h1v1h-1zM14 9h1v1h-1zM13 9h1v1h-1zM12 9h1v1h-1zM11 9h1v1h-1zM10 9h1v1h-1zM9 9h1v1H9z" opacity="1" data-original="#46f8ff" class=""></path><path fill="#46f8ff" d="M9 9h1v1H9zM8 9h1v1H8z" opacity="1" data-original="#46f8ff" class=""></path><path d="M7 9h1v1H7z" fill="#000000" opacity="1" data-original="#000000" class=""></path><path fill="#46f8ff" d="M6 9h1v1H6zM5 9h1v1H5zM4 9h1v1H4zM3 9h1v1H3zM2 9h1v1H2z" opacity="1" data-original="#46f8ff" class=""></path><path d="M1 9h1v1H1zM30 8h1v1h-1z" fill="#000000" opacity="1" data-original="#000000" class=""></path><path fill="#46f8ff" d="M29 8h1v1h-1zM28 8h1v1h-1z" opacity="1" data-original="#46f8ff" class=""></path><path d="M27 8h1v1h-1zM26 8h1v1h-1zM25 8h1v1h-1zM24 8h1v1h-1z" fill="#000000" opacity="1" data-original="#000000" class=""></path><path d="M24 8h1v1h-1zM23 8h1v1h-1zM22 8h1v1h-1zM21 8h1v1h-1zM20 8h1v1h-1z" fill="#000000" opacity="1" data-original="#000000" class=""></path><path fill="#46f8ff" d="M19 8h1v1h-1zM18 8h1v1h-1zM17 8h1v1h-1zM16 8h1v1h-1zM15 8h1v1h-1zM14 8h1v1h-1zM13 8h1v1h-1zM12 8h1v1h-1zM11 8h1v1h-1zM10 8h1v1h-1zM9 8h1v1H9z" opacity="1" data-original="#46f8ff" class=""></path><path fill="#46f8ff" d="M9 8h1v1H9zM8 8h1v1H8zM7 8h1v1H7zM6 8h1v1H6zM5 8h1v1H5zM4 8h1v1H4zM3 8h1v1H3z" opacity="1" data-original="#46f8ff" class=""></path><path fill="#bdfdff" d="M2 8h1v1H2z" opacity="1" data-original="#bdfdff"></path><path d="M1 8h1v1H1zM30 7h1v1h-1z" fill="#000000" opacity="1" data-original="#000000" class=""></path><path fill="#46f8ff" d="M29 7h1v1h-1zM28 7h1v1h-1z" opacity="1" data-original="#46f8ff" class=""></path><path d="M27 7h1v1h-1z" fill="#000000" opacity="1" data-original="#000000" class=""></path><path fill="#006df0" d="M26 7h1v1h-1z" opacity="1" data-original="#006df0"></path><path fill="#57a4ff" d="M25 7h1v1h-1zM24 7h1v1h-1z" opacity="1" data-original="#57a4ff"></path><path fill="#57a4ff" d="M24 7h1v1h-1zM23 7h1v1h-1zM22 7h1v1h-1zM21 7h1v1h-1z" opacity="1" data-original="#57a4ff"></path><path d="M20 7h1v1h-1z" fill="#000000" opacity="1" data-original="#000000" class=""></path><path fill="#46f8ff" d="M19 7h1v1h-1zM18 7h1v1h-1zM17 7h1v1h-1zM16 7h1v1h-1zM15 7h1v1h-1zM14 7h1v1h-1zM13 7h1v1h-1zM12 7h1v1h-1zM11 7h1v1h-1zM10 7h1v1h-1zM9 7h1v1H9z" opacity="1" data-original="#46f8ff" class=""></path><path fill="#46f8ff" d="M9 7h1v1H9zM8 7h1v1H8zM7 7h1v1H7zM6 7h1v1H6zM5 7h1v1H5z" opacity="1" data-original="#46f8ff" class=""></path><path fill="#bdfdff" d="M4 7h1v1H4z" opacity="1" data-original="#bdfdff"></path><path fill="#46f8ff" d="M3 7h1v1H3zM2 7h1v1H2z" opacity="1" data-original="#46f8ff" class=""></path><path d="M1 7h1v1H1zM30 6h1v1h-1z" fill="#000000" opacity="1" data-original="#000000" class=""></path><path fill="#46f8ff" d="M29 6h1v1h-1zM28 6h1v1h-1z" opacity="1" data-original="#46f8ff" class=""></path><path d="M27 6h1v1h-1z" fill="#000000" opacity="1" data-original="#000000" class=""></path><path fill="#57a4ff" d="M26 6h1v1h-1z" opacity="1" data-original="#57a4ff"></path><path d="M25 6h1v1h-1zM24 6h1v1h-1z" fill="#000000" opacity="1" data-original="#000000" class=""></path><path d="M24 6h1v1h-1zM23 6h1v1h-1zM22 6h1v1h-1z" fill="#000000" opacity="1" data-original="#000000" class=""></path><path fill="#bddbff" d="M21 6h1v1h-1z" opacity="1" data-original="#bddbff"></path><path d="M20 6h1v1h-1z" fill="#000000" opacity="1" data-original="#000000" class=""></path><path fill="#46f8ff" d="M19 6h1v1h-1zM18 6h1v1h-1zM17 6h1v1h-1zM16 6h1v1h-1zM15 6h1v1h-1zM14 6h1v1h-1zM13 6h1v1h-1zM12 6h1v1h-1zM11 6h1v1h-1zM10 6h1v1h-1zM9 6h1v1H9z" opacity="1" data-original="#46f8ff" class=""></path><path fill="#46f8ff" d="M9 6h1v1H9zM8 6h1v1H8zM7 6h1v1H7zM6 6h1v1H6zM5 6h1v1H5zM4 6h1v1H4zM3 6h1v1H3z" opacity="1" data-original="#46f8ff" class=""></path><path fill="#bdfdff" d="M2 6h1v1H2z" opacity="1" data-original="#bdfdff"></path><path d="M1 6h1v1H1zM30 5h1v1h-1z" fill="#000000" opacity="1" data-original="#000000" class=""></path><path fill="#46f8ff" d="M29 5h1v1h-1zM28 5h1v1h-1z" opacity="1" data-original="#46f8ff" class=""></path><path d="M27 5h1v1h-1zM26 5h1v1h-1zM25 5h1v1h-1zM24 5h1v1h-1z" fill="#000000" opacity="1" data-original="#000000" class=""></path><path d="M24 5h1v1h-1zM23 5h1v1h-1zM22 5h1v1h-1zM21 5h1v1h-1zM20 5h1v1h-1z" fill="#000000" opacity="1" data-original="#000000" class=""></path><path fill="#46f8ff" d="M19 5h1v1h-1zM18 5h1v1h-1zM17 5h1v1h-1zM16 5h1v1h-1zM15 5h1v1h-1zM14 5h1v1h-1zM13 5h1v1h-1zM12 5h1v1h-1zM11 5h1v1h-1zM10 5h1v1h-1zM9 5h1v1H9z" opacity="1" data-original="#46f8ff" class=""></path><path fill="#46f8ff" d="M9 5h1v1H9zM8 5h1v1H8zM7 5h1v1H7z" opacity="1" data-original="#46f8ff" class=""></path><path fill="#bdfdff" d="M6 5h1v1H6z" opacity="1" data-original="#bdfdff"></path><path fill="#46f8ff" d="M5 5h1v1H5z" opacity="1" data-original="#46f8ff" class=""></path><path fill="#bdfdff" d="M4 5h1v1H4zM3 5h1v1H3zM2 5h1v1H2z" opacity="1" data-original="#bdfdff"></path><path d="M1 5h1v1H1zM29 4h1v1h-1zM28 4h1v1h-1zM27 4h1v1h-1z" fill="#000000" opacity="1" data-original="#000000" class=""></path><path fill="#006df0" d="M26 4h1v1h-1z" opacity="1" data-original="#006df0"></path><path fill="#57a4ff" d="M25 4h1v1h-1zM24 4h1v1h-1z" opacity="1" data-original="#57a4ff"></path><path fill="#57a4ff" d="M24 4h1v1h-1zM23 4h1v1h-1zM22 4h1v1h-1zM21 4h1v1h-1z" opacity="1" data-original="#57a4ff"></path><path d="M20 4h1v1h-1zM19 4h1v1h-1zM18 4h1v1h-1zM17 4h1v1h-1zM16 4h1v1h-1zM15 4h1v1h-1zM14 4h1v1h-1zM13 4h1v1h-1zM12 4h1v1h-1zM11 4h1v1h-1zM10 4h1v1h-1zM9 4h1v1H9z" fill="#000000" opacity="1" data-original="#000000" class=""></path><path d="M9 4h1v1H9zM8 4h1v1H8zM7 4h1v1H7zM6 4h1v1H6zM5 4h1v1H5zM4 4h1v1H4zM3 4h1v1H3zM2 4h1v1H2zM27 3h1v1h-1z" fill="#000000" opacity="1" data-original="#000000" class=""></path><path fill="#57a4ff" d="M26 3h1v1h-1z" opacity="1" data-original="#57a4ff"></path><path d="M25 3h1v1h-1zM24 3h1v1h-1z" fill="#000000" opacity="1" data-original="#000000" class=""></path><path d="M24 3h1v1h-1zM23 3h1v1h-1zM22 3h1v1h-1z" fill="#000000" opacity="1" data-original="#000000" class=""></path><path fill="#bddbff" d="M21 3h1v1h-1z" opacity="1" data-original="#bddbff"></path><path d="M20 3h1v1h-1zM26 2h1v1h-1zM25 2h1v1h-1zM24 2h1v1h-1z" fill="#000000" opacity="1" data-original="#000000" class=""></path><path d="M24 2h1v1h-1zM23 2h1v1h-1zM22 2h1v1h-1zM21 2h1v1h-1zM25 1h1v1h-1z" fill="#000000" opacity="1" data-original="#000000" class=""></path><path fill="#ffde55" d="M24 1h1v1h-1z" opacity="1" data-original="#ffde55"></path><path fill="#ffde55" d="M24 1h1v1h-1z" opacity="1" data-original="#ffde55"></path><path fill="#ffeb99" d="M23 1h1v1h-1z" opacity="1" data-original="#ffeb99"></path><path d="M22 1h1v1h-1zM25 0h1v1h-1zM24 0h1v1h-1z" fill="#000000" opacity="1" data-original="#000000" class=""></path><path d="M24 0h1v1h-1zM23 0h1v1h-1zM22 0h1v1h-1z" fill="#000000" opacity="1" data-original="#000000" class=""></path></g></svg>
